<?xml version="1.0" encoding="utf-8"?>
<!-- Generator: Adobe Illustrator 27.5.0, SVG Export Plug-In . SVG Version: 6.00 Build 0)  -->
<svg version="1.1" xmlns="http://www.w3.org/2000/svg" xmlns:xlink="http://www.w3.org/1999/xlink" x="0px" y="0px"
	 viewBox="0 0 500 500" style="enable-background:new 0 0 500 500;" xml:space="preserve">
<g id="Background_Simple">
	<g>
		<path style="fill:#92E3A9;" d="M50.802,197.432c0,0-18.001,76.921,32.139,143.941s137.544,93.064,207.798,116.03
			c70.253,22.966,136.059-3.55,160.741-62.59c24.683-59.04-25.175-90.846-36.169-167.961c-10.994-77.115-2.218-99.323-53.5-158.037
			C310.53,10.103,205.295,11.5,134.147,71.783C62.998,132.066,50.802,197.432,50.802,197.432z"/>
		<path style="opacity:0.7;fill:#FFFFFF;" d="M50.802,197.432c0,0-18.001,76.921,32.139,143.941s137.544,93.064,207.798,116.03
			c70.253,22.966,136.059-3.55,160.741-62.59c24.683-59.04-25.175-90.846-36.169-167.961c-10.994-77.115-2.218-99.323-53.5-158.037
			C310.53,10.103,205.295,11.5,134.147,71.783C62.998,132.066,50.802,197.432,50.802,197.432z"/>
	</g>
</g>
<g id="Plant">
	<g>
		<g>
			<g>
				<path style="fill:none;stroke:#263238;stroke-width:3;stroke-linecap:round;stroke-linejoin:round;stroke-miterlimit:10;" d="
					M99.753,193.036c0,0,0.595,74.375,0.595,94.01c0,19.635-0.595,137.274-0.595,137.274"/>
				<polygon style="fill:#92E3A9;" points="144.378,212.076 125.933,196.606 177.698,202.556 131.883,187.681 178.888,179.351 
					125.933,179.351 166.988,148.411 120.578,171.616 147.353,125.8 111.653,166.856 124.148,106.76 100.943,162.691 
					98.563,100.215 93.803,163.881 68.483,107.637 86.068,169.236 48.196,127.923 81.308,178.756 34.431,145.312 78.333,187.681 
					28.634,160.527 74.168,191.251 32.981,185.885 72.978,197.201 40.951,202.549 74.168,201.366 54.533,214.456 100.943,201.961 
									"/>
			</g>
			<path style="fill:none;stroke:#263238;stroke-width:3;stroke-linecap:round;stroke-linejoin:round;stroke-miterlimit:10;" d="
				M81.903,268.006c0,0-1.785,15.47-0.595,21.42c1.19,5.95,1.785,13.09,1.785,20.825c0,7.735,0.595,40.609,0.595,45.964
				c0,5.355-0.595,50.85-0.595,55.015c0,4.165,0,7.14,0,9.52c0,2.38,0,4.76,0,4.76"/>
			<path style="fill:none;stroke:#263238;stroke-width:3;stroke-linecap:round;stroke-linejoin:round;stroke-miterlimit:10;" d="
				M83.688,350.266c0,0,2.38-45.369,4.76-51.319c2.38-5.95,4.165-4.165,4.76-11.305c0.595-7.14,0.595-10.115,1.785-12.495
				c1.19-2.38,2.38-6.545,2.38-6.545l1.19-4.76"/>
			<polygon style="fill:#92E3A9;" points="125.933,283.476 107.488,268.006 159.253,273.956 113.438,259.081 160.443,250.751 
				107.488,250.751 148.543,219.811 102.133,243.016 128.908,197.201 93.208,238.256 105.703,178.161 82.498,234.091 
				80.118,171.616 75.358,235.281 56.912,177.566 67.623,240.636 34.897,193.631 62.863,250.156 19.94,222.111 59.888,259.081 
				15.593,240.949 55.722,262.651 14.144,259.062 54.533,268.601 26.461,275.001 55.722,272.766 36.087,285.856 82.498,273.361 			
				"/>
			<polygon style="fill:#92E3A9;" points="117.203,376.691 103.402,365.117 142.132,369.569 107.854,358.44 143.022,352.207 
				103.402,352.207 134.119,329.059 99.396,346.42 119.428,312.142 92.718,342.859 102.067,297.897 84.705,339.742 82.925,293 
				79.363,340.633 65.563,297.452 73.576,344.639 49.092,309.471 70.015,351.762 37.901,330.78 67.789,358.44 34.649,344.873 
				64.673,361.111 33.565,358.425 63.783,365.562 42.78,370.35 64.673,368.678 49.982,378.472 84.705,369.124 			"/>
		</g>
		<path style="fill:#FFFFFF;stroke:#263238;stroke-linejoin:round;stroke-miterlimit:10;" d="M65.604,408.651L52.867,429.88
			c-1.956,3.259-2.503,7.173-1.518,10.843l5.66,21.085c0.824,3.071,3.608,5.206,6.787,5.206h58.011c3.18,0,5.963-2.135,6.787-5.206
			l5.66-21.085c0.986-3.671,0.438-7.584-1.518-10.843l-12.737-21.229c-0.869-1.449-2.435-2.335-4.124-2.335H69.728
			C68.039,406.316,66.473,407.203,65.604,408.651z"/>
	</g>
</g>
<g id="Picture">
	<g>
		
			<rect x="279.832" y="55.656" style="fill:none;stroke:#263238;stroke-linecap:round;stroke-linejoin:round;stroke-miterlimit:10;" width="119.432" height="169.464"/>
		
			<rect x="284.381" y="62.112" style="fill:none;stroke:#263238;stroke-linecap:round;stroke-linejoin:round;stroke-miterlimit:10;" width="110.332" height="156.553"/>
		<path style="fill:none;stroke:#263238;stroke-linecap:round;stroke-linejoin:round;stroke-miterlimit:10;" d="M284.536,206.101
			c12.904-17.95,32.637-28.02,53.216-35.204c17.617-6.151,30.063-14.568,39.101-31.465c13.127-24.541,6.379-56.716,0.019-77.226"/>
		<path style="fill:none;stroke:#263238;stroke-linecap:round;stroke-linejoin:round;stroke-miterlimit:10;" d="M339,62.349
			c8.471,11.6,18.448,31.419,10.797,54.086c-5.973,17.699-17.488,24.64-33.371,13.274c-9.524-6.816-19.958-18.896-31.906-24.386"/>
		<path style="fill:none;stroke:#263238;stroke-linecap:round;stroke-linejoin:round;stroke-miterlimit:10;" d="M339.803,218.679
			c5.542-3.341,12.896-9.355,21.267-20.176c3.785-4.893,10.859-13.698,18.199-11.489c8.269,2.489,8.748,15.286,6.825,21.913
			c-0.974,3.354-2.512,6.602-4.355,9.683"/>
		
			<circle style="fill:none;stroke:#263238;stroke-linecap:round;stroke-linejoin:round;stroke-miterlimit:10;" cx="310.116" cy="156.567" r="13.077"/>
		<path style="fill:none;stroke:#263238;stroke-linecap:round;stroke-linejoin:round;stroke-miterlimit:10;" d="M334.015,75.177
			c0,2.615-2.12,4.735-4.735,4.735c-2.615,0-4.735-2.12-4.735-4.735c0-2.615,2.12-4.735,4.735-4.735
			C331.895,70.442,334.015,72.562,334.015,75.177z"/>
		
			<circle style="fill:none;stroke:#263238;stroke-linecap:round;stroke-linejoin:round;stroke-miterlimit:10;" cx="381.812" cy="166.488" r="5.411"/>
	</g>
</g>
<g id="Ruler">
	<g>
		<path style="fill:#92E3A9;stroke:#263238;stroke-linecap:round;stroke-linejoin:round;stroke-miterlimit:10;" d="M416.149,85.146
			v174.34h11.555V85.146H416.149z M421.927,93.227c-0.83,0-1.503-0.673-1.503-1.503s0.673-1.503,1.503-1.503
			s1.503,0.673,1.503,1.503S422.757,93.227,421.927,93.227z"/>
		<path style="fill:#263238;stroke:#263238;stroke-linecap:round;stroke-linejoin:round;stroke-miterlimit:10;" d="M424.46,245.957
			h-5.065h-37.204c1.235,2.221,4.494,7.03,9.951,7.892c7.14,1.127,15.032-1.503,21.796,5.637h5.457h5.065h5.457
			c6.764-7.14,14.656-4.51,21.796-5.637c5.457-0.862,8.716-5.67,9.951-7.892H424.46z"/>
	</g>
</g>
<g id="Desk">
	<g>
		<g>
			
				<rect x="153.009" y="286.333" style="fill:#263238;stroke:#263238;stroke-linecap:round;stroke-linejoin:round;stroke-miterlimit:10;" width="61.333" height="80.667"/>
			
				<rect x="182.343" y="286.333" style="fill:#FFFFFF;stroke:#263238;stroke-linecap:round;stroke-linejoin:round;stroke-miterlimit:10;" width="61.333" height="80.667"/>
			
				<rect x="187.009" y="327.804" style="fill:#FFFFFF;stroke:#263238;stroke-linecap:round;stroke-linejoin:round;stroke-miterlimit:10;" width="52" height="30.529"/>
			
				<rect x="187.009" y="292.471" style="fill:#FFFFFF;stroke:#263238;stroke-linecap:round;stroke-linejoin:round;stroke-miterlimit:10;" width="52" height="30.529"/>
			
				<rect x="203.808" y="305" style="fill:#263238;stroke:#263238;stroke-linecap:round;stroke-linejoin:round;stroke-miterlimit:10;" width="18.403" height="5.471"/>
			
				<rect x="203.808" y="338.333" style="fill:#263238;stroke:#263238;stroke-linecap:round;stroke-linejoin:round;stroke-miterlimit:10;" width="18.403" height="5.471"/>
		</g>
		<g>
			<g>
				<path style="fill:#263238;" d="M129.588,285.5h-12.349c48.128,30.955,85.413,121.732,86.31,181.514h7.052
					c-0.43-31.685-10.133-70.218-26.782-106.153C168.477,327.744,149.516,301.497,129.588,285.5z"/>
			</g>
			<g>
				<path style="fill:#263238;" d="M163.149,285.5c-19.928,15.996-38.889,42.244-54.232,75.361
					c-16.648,35.935-26.351,74.468-26.782,106.153h7.052c0.897-59.782,38.183-150.559,86.311-181.514H163.149z"/>
			</g>
		</g>
		<g>
			<g>
				<path style="fill:#263238;" d="M290.856,286.45h-12.349c48.128,30.955,85.413,121.732,86.311,181.514h7.052
					c-0.43-31.685-10.133-70.218-26.782-106.153C329.745,328.694,310.784,302.447,290.856,286.45z"/>
			</g>
			<g>
				<path style="fill:#263238;" d="M324.416,286.45c-19.928,15.996-38.889,42.244-54.232,75.361
					c-16.648,35.935-26.351,74.468-26.782,106.153h7.053c0.898-59.782,38.182-150.559,86.31-181.514H324.416z"/>
			</g>
		</g>
		<g>
			<polygon style="fill:#263238;stroke:#263238;stroke-linecap:round;stroke-linejoin:round;stroke-miterlimit:10;" points="
				295.309,167.818 298.515,160.706 123.825,160.706 123.616,161.17 120.619,167.818 159.487,283.789 334.178,283.789 			"/>
			
				<polygon id="XMLID_23_" style="fill:#FFFFFF;stroke:#263238;stroke-linecap:round;stroke-linejoin:round;stroke-miterlimit:10;" points="
				340.178,283.789 165.487,283.789 123.825,160.706 298.515,160.706 			"/>
		</g>
		<g>
			
				<polygon id="XMLID_24_" style="fill:#FFFFFF;stroke:#263238;stroke-linecap:round;stroke-linejoin:round;stroke-miterlimit:10;" points="
				320.911,272.828 177.334,272.828 143.092,171.667 286.669,171.667 			"/>
			<g>
				
					<polygon style="fill:#FFFFFF;stroke:#263238;stroke-width:0.5;stroke-linecap:round;stroke-linejoin:round;stroke-miterlimit:10;" points="
					234.236,225.969 284.522,225.969 277.631,205.595 227.345,205.595 				"/>
				
					<polygon style="fill:#FFFFFF;stroke:#263238;stroke-width:0.5;stroke-linecap:round;stroke-linejoin:round;stroke-miterlimit:10;" points="
					228.005,207.545 278.291,207.545 277.631,205.595 227.345,205.595 				"/>
				
					<polygon style="fill:#FFFFFF;stroke:#263238;stroke-width:0.5;stroke-linecap:round;stroke-linejoin:round;stroke-miterlimit:10;" points="
					279.212,203.861 226.976,203.861 222.651,191.072 266.868,191.072 				"/>
				
					<polygon style="fill:#FFFFFF;stroke:#263238;stroke-width:0.5;stroke-linecap:round;stroke-linejoin:round;stroke-miterlimit:10;" points="
					227.348,206.245 280.019,206.245 279.212,203.861 226.542,203.861 				"/>
				
					<polygon style="fill:#FFFFFF;stroke:#263238;stroke-width:0.5;stroke-linecap:round;stroke-linejoin:round;stroke-miterlimit:10;" points="
					234.004,198.885 198.762,198.885 204.528,215.932 239.77,215.932 				"/>
				
					<polygon style="fill:#FFFFFF;stroke:#263238;stroke-width:0.5;stroke-linecap:round;stroke-linejoin:round;stroke-miterlimit:10;" points="
					234.004,198.885 198.762,198.885 199.346,200.609 234.587,200.609 				"/>
				
					<polygon style="fill:#FFFFFF;stroke:#263238;stroke-width:0.5;stroke-linecap:round;stroke-linejoin:round;stroke-miterlimit:10;" points="
					210.097,181.51 195.798,195.934 234.154,195.934 				"/>
				
					<polygon style="fill:#FFFFFF;stroke:#263238;stroke-width:0.5;stroke-linecap:round;stroke-linejoin:round;stroke-miterlimit:10;" points="
					210.762,183.477 199.388,194.951 229.898,194.951 				"/>
				
					<polygon style="fill:#FFFFFF;stroke:#263238;stroke-width:0.5;stroke-linecap:round;stroke-linejoin:round;stroke-miterlimit:10;" points="
					190.136,249.47 187.841,249.47 178.827,222.816 181.122,222.816 				"/>
				
					<polygon style="fill:#FFFFFF;stroke:#263238;stroke-width:0.5;stroke-linecap:round;stroke-linejoin:round;stroke-miterlimit:10;" points="
					299.604,249.392 193.388,249.392 184.4,222.816 290.616,222.816 				"/>
				
					<polygon style="fill:#FFFFFF;stroke:#263238;stroke-width:0.5;stroke-linecap:round;stroke-linejoin:round;stroke-miterlimit:10;" points="
					291.609,225.752 185.393,225.752 184.4,222.816 290.616,222.816 				"/>
				
					<polygon style="fill:#FFFFFF;stroke:#263238;stroke-width:0.5;stroke-linecap:round;stroke-linejoin:round;stroke-miterlimit:10;" points="
					247.558,221.997 175.599,221.997 179.003,214.128 244.897,214.128 				"/>
				
					<polygon style="fill:#FFFFFF;stroke:#263238;stroke-width:0.5;stroke-linecap:round;stroke-linejoin:round;stroke-miterlimit:10;" points="
					234.671,223.636 176.154,223.636 175.599,221.997 234.117,221.997 				"/>
				
					<polygon style="fill:#FFFFFF;stroke:#263238;stroke-width:0.5;stroke-linecap:round;stroke-linejoin:round;stroke-miterlimit:10;" points="
					290.339,221.997 231.002,221.997 240.267,249.392 299.604,249.392 				"/>
				
					<polygon style="fill:#FFFFFF;stroke:#263238;stroke-width:0.5;stroke-linecap:round;stroke-linejoin:round;stroke-miterlimit:10;" points="
					289.351,223.585 233.065,223.585 241.793,249.392 298.079,249.392 				"/>
				
					<polygon style="fill:#FFFFFF;stroke:#263238;stroke-width:0.5;stroke-linecap:round;stroke-linejoin:round;stroke-miterlimit:10;" points="
					285.884,227.242 239.005,227.242 246.496,249.392 293.376,249.392 				"/>
				<g>
					
						<polygon style="fill:#FFFFFF;stroke:#263238;stroke-width:0.5;stroke-linecap:round;stroke-linejoin:round;stroke-miterlimit:10;" points="
						254.576,238.364 243.989,238.364 242.577,234.19 253.164,234.19 					"/>
					
						<polygon style="fill:#FFFFFF;stroke:#263238;stroke-width:0.5;stroke-linecap:round;stroke-linejoin:round;stroke-miterlimit:10;" points="
						265.877,238.364 255.29,238.364 253.878,234.19 264.465,234.19 					"/>
					
						<polygon style="fill:#FFFFFF;stroke:#263238;stroke-width:0.5;stroke-linecap:round;stroke-linejoin:round;stroke-miterlimit:10;" points="
						256.263,243.353 245.676,243.353 244.264,239.178 254.851,239.178 					"/>
					
						<polygon style="fill:#FFFFFF;stroke:#263238;stroke-width:0.5;stroke-linecap:round;stroke-linejoin:round;stroke-miterlimit:10;" points="
						267.564,243.353 256.977,243.353 255.565,239.178 266.152,239.178 					"/>
					
						<polygon style="fill:#FFFFFF;stroke:#263238;stroke-width:0.5;stroke-linecap:round;stroke-linejoin:round;stroke-miterlimit:10;" points="
						257.95,248.341 247.363,248.341 245.951,244.167 256.538,244.167 					"/>
					
						<polygon style="fill:#FFFFFF;stroke:#263238;stroke-width:0.5;stroke-linecap:round;stroke-linejoin:round;stroke-miterlimit:10;" points="
						269.251,248.341 258.664,248.341 257.252,244.167 267.839,244.167 					"/>
					<g>
						
							<polygon style="fill:#FFFFFF;stroke:#263238;stroke-width:0.5;stroke-linecap:round;stroke-linejoin:round;stroke-miterlimit:10;" points="
							277.178,238.364 266.59,238.364 265.179,234.19 275.766,234.19 						"/>
						
							<polygon style="fill:#FFFFFF;stroke:#263238;stroke-width:0.5;stroke-linecap:round;stroke-linejoin:round;stroke-miterlimit:10;" points="
							288.478,238.364 277.891,238.364 276.48,234.19 287.067,234.19 						"/>
						
							<polygon style="fill:#FFFFFF;stroke:#263238;stroke-width:0.5;stroke-linecap:round;stroke-linejoin:round;stroke-miterlimit:10;" points="
							278.865,243.353 268.278,243.353 266.866,239.178 277.453,239.178 						"/>
						
							<polygon style="fill:#FFFFFF;stroke:#263238;stroke-width:0.5;stroke-linecap:round;stroke-linejoin:round;stroke-miterlimit:10;" points="
							290.166,243.353 279.578,243.353 278.167,239.178 288.754,239.178 						"/>
						
							<polygon style="fill:#FFFFFF;stroke:#263238;stroke-width:0.5;stroke-linecap:round;stroke-linejoin:round;stroke-miterlimit:10;" points="
							280.552,248.341 269.965,248.341 268.553,244.167 279.14,244.167 						"/>
						
							<polygon style="fill:#FFFFFF;stroke:#263238;stroke-width:0.5;stroke-linecap:round;stroke-linejoin:round;stroke-miterlimit:10;" points="
							291.853,248.341 281.266,248.341 279.854,244.167 290.441,244.167 						"/>
					</g>
				</g>
				
					<polygon style="fill:#FFFFFF;stroke:#263238;stroke-width:0.5;stroke-linecap:round;stroke-linejoin:round;stroke-miterlimit:10;" points="
					251.086,195.594 228.818,222.324 291.434,222.324 				"/>
				
					<polygon style="fill:#FFFFFF;stroke:#263238;stroke-width:0.5;stroke-linecap:round;stroke-linejoin:round;stroke-miterlimit:10;" points="
					252.318,199.239 234.606,220.502 284.413,220.502 				"/>
				
					<polygon style="fill:#FFFFFF;stroke:#263238;stroke-width:0.5;stroke-linecap:round;stroke-linejoin:round;stroke-miterlimit:10;" points="
					235.699,199.048 196.851,199.048 195.798,195.934 234.645,195.934 				"/>
				
					<polygon style="fill:#FFFFFF;stroke:#263238;stroke-width:0.5;stroke-linecap:round;stroke-linejoin:round;stroke-miterlimit:10;" points="
					232.598,213.145 209.65,213.145 205.16,199.868 228.108,199.868 				"/>
				
					<polygon style="fill:#FFFFFF;stroke:#263238;stroke-width:0.5;stroke-linecap:round;stroke-linejoin:round;stroke-miterlimit:10;" points="
					229.32,213.145 212.929,213.145 208.438,199.868 224.83,199.868 				"/>
				
					<polygon style="fill:#FFFFFF;stroke:#263238;stroke-width:0.5;stroke-linecap:round;stroke-linejoin:round;stroke-miterlimit:10;" points="
					221.78,213.145 220.469,213.145 215.978,199.868 217.29,199.868 				"/>
				
					<polygon style="fill:#FFFFFF;stroke:#263238;stroke-width:0.5;stroke-linecap:round;stroke-linejoin:round;stroke-miterlimit:10;" points="
					210.959,207.08 210.571,205.933 226.797,205.933 227.185,207.08 				"/>
				
					<polygon style="fill:#FFFFFF;stroke:#263238;stroke-width:0.5;stroke-linecap:round;stroke-linejoin:round;stroke-miterlimit:10;" points="
					219.805,245.108 196.857,245.108 191.313,228.717 214.261,228.717 				"/>
				
					<polygon style="fill:#FFFFFF;stroke:#263238;stroke-width:0.5;stroke-linecap:round;stroke-linejoin:round;stroke-miterlimit:10;" points="
					216.526,245.108 200.135,245.108 194.591,228.717 210.983,228.717 				"/>
				
					<polygon style="fill:#FFFFFF;stroke:#263238;stroke-width:0.5;stroke-linecap:round;stroke-linejoin:round;stroke-miterlimit:10;" points="
					208.986,245.108 207.675,245.108 202.131,228.717 203.443,228.717 				"/>
				
					<polygon style="fill:#FFFFFF;stroke:#263238;stroke-width:0.5;stroke-linecap:round;stroke-linejoin:round;stroke-miterlimit:10;" points="
					197.685,237.621 197.206,236.204 213.486,236.204 213.965,237.621 				"/>
				
					<polygon style="fill:#FFFFFF;stroke:#263238;stroke-width:0.5;stroke-linecap:round;stroke-linejoin:round;stroke-miterlimit:10;" points="
					230.599,229.045 221.748,229.045 228.567,249.206 237.418,249.206 				"/>
				
					<polygon style="fill:#FFFFFF;stroke:#263238;stroke-width:0.5;stroke-linecap:round;stroke-linejoin:round;stroke-miterlimit:10;" points="
					229.55,230.304 223.649,230.304 228.933,245.928 234.834,245.928 				"/>
				<g>
					<g>
						
							<polygon style="fill:#FFFFFF;stroke:#263238;stroke-width:0.5;stroke-linecap:round;stroke-linejoin:round;stroke-miterlimit:10;" points="
							242.722,230.406 242.428,229.536 240.883,229.536 241.177,230.406 						"/>
						
							<polygon style="fill:#FFFFFF;stroke:#263238;stroke-width:0.5;stroke-linecap:round;stroke-linejoin:round;stroke-miterlimit:10;" points="
							243.403,230.406 244.948,230.406 244.654,229.536 243.109,229.536 						"/>
						
							<polygon style="fill:#FFFFFF;stroke:#263238;stroke-width:0.5;stroke-linecap:round;stroke-linejoin:round;stroke-miterlimit:10;" points="
							242.883,230.883 241.339,230.883 241.708,231.974 243.252,231.974 						"/>
						
							<polygon style="fill:#FFFFFF;stroke:#263238;stroke-width:0.5;stroke-linecap:round;stroke-linejoin:round;stroke-miterlimit:10;" points="
							243.565,230.883 243.934,231.974 245.478,231.974 245.109,230.883 						"/>
					</g>
					<g>
						
							<polygon style="fill:#FFFFFF;stroke:#263238;stroke-width:0.5;stroke-linecap:round;stroke-linejoin:round;stroke-miterlimit:10;" points="
							248.537,230.406 248.243,229.536 246.699,229.536 246.993,230.406 						"/>
						
							<polygon style="fill:#FFFFFF;stroke:#263238;stroke-width:0.5;stroke-linecap:round;stroke-linejoin:round;stroke-miterlimit:10;" points="
							249.219,230.406 250.763,230.406 250.469,229.536 248.925,229.536 						"/>
						
							<polygon style="fill:#FFFFFF;stroke:#263238;stroke-width:0.5;stroke-linecap:round;stroke-linejoin:round;stroke-miterlimit:10;" points="
							248.698,230.883 247.154,230.883 247.523,231.974 249.067,231.974 						"/>
						
							<polygon style="fill:#FFFFFF;stroke:#263238;stroke-width:0.5;stroke-linecap:round;stroke-linejoin:round;stroke-miterlimit:10;" points="
							249.38,230.883 249.749,231.974 251.293,231.974 250.924,230.883 						"/>
					</g>
					<g>
						
							<polygon style="fill:#FFFFFF;stroke:#263238;stroke-width:0.5;stroke-linecap:round;stroke-linejoin:round;stroke-miterlimit:10;" points="
							254.352,230.406 254.058,229.536 252.514,229.536 252.808,230.406 						"/>
						
							<polygon style="fill:#FFFFFF;stroke:#263238;stroke-width:0.5;stroke-linecap:round;stroke-linejoin:round;stroke-miterlimit:10;" points="
							255.034,230.406 256.578,230.406 256.284,229.536 254.74,229.536 						"/>
						
							<polygon style="fill:#FFFFFF;stroke:#263238;stroke-width:0.5;stroke-linecap:round;stroke-linejoin:round;stroke-miterlimit:10;" points="
							254.513,230.883 252.969,230.883 253.338,231.974 254.882,231.974 						"/>
						
							<polygon style="fill:#FFFFFF;stroke:#263238;stroke-width:0.5;stroke-linecap:round;stroke-linejoin:round;stroke-miterlimit:10;" points="
							255.195,230.883 255.564,231.974 257.108,231.974 256.739,230.883 						"/>
					</g>
					<g>
						
							<polygon style="fill:#FFFFFF;stroke:#263238;stroke-width:0.5;stroke-linecap:round;stroke-linejoin:round;stroke-miterlimit:10;" points="
							260.167,230.406 259.873,229.536 258.329,229.536 258.623,230.406 						"/>
						
							<polygon style="fill:#FFFFFF;stroke:#263238;stroke-width:0.5;stroke-linecap:round;stroke-linejoin:round;stroke-miterlimit:10;" points="
							260.849,230.406 262.393,230.406 262.099,229.536 260.555,229.536 						"/>
						
							<polygon style="fill:#FFFFFF;stroke:#263238;stroke-width:0.5;stroke-linecap:round;stroke-linejoin:round;stroke-miterlimit:10;" points="
							260.328,230.883 258.784,230.883 259.153,231.974 260.697,231.974 						"/>
						
							<polygon style="fill:#FFFFFF;stroke:#263238;stroke-width:0.5;stroke-linecap:round;stroke-linejoin:round;stroke-miterlimit:10;" points="
							261.01,230.883 261.379,231.974 262.923,231.974 262.555,230.883 						"/>
					</g>
					<g>
						
							<polygon style="fill:#FFFFFF;stroke:#263238;stroke-width:0.5;stroke-linecap:round;stroke-linejoin:round;stroke-miterlimit:10;" points="
							265.982,230.406 265.688,229.536 264.144,229.536 264.438,230.406 						"/>
						
							<polygon style="fill:#FFFFFF;stroke:#263238;stroke-width:0.5;stroke-linecap:round;stroke-linejoin:round;stroke-miterlimit:10;" points="
							266.664,230.406 268.208,230.406 267.914,229.536 266.37,229.536 						"/>
						
							<polygon style="fill:#FFFFFF;stroke:#263238;stroke-width:0.5;stroke-linecap:round;stroke-linejoin:round;stroke-miterlimit:10;" points="
							266.144,230.883 264.6,230.883 264.969,231.974 266.513,231.974 						"/>
						
							<polygon style="fill:#FFFFFF;stroke:#263238;stroke-width:0.5;stroke-linecap:round;stroke-linejoin:round;stroke-miterlimit:10;" points="
							266.826,230.883 267.194,231.974 268.739,231.974 268.37,230.883 						"/>
					</g>
					<g>
						
							<polygon style="fill:#FFFFFF;stroke:#263238;stroke-width:0.5;stroke-linecap:round;stroke-linejoin:round;stroke-miterlimit:10;" points="
							271.797,230.406 271.503,229.536 269.959,229.536 270.253,230.406 						"/>
						
							<polygon style="fill:#FFFFFF;stroke:#263238;stroke-width:0.5;stroke-linecap:round;stroke-linejoin:round;stroke-miterlimit:10;" points="
							272.479,230.406 274.023,230.406 273.729,229.536 272.185,229.536 						"/>
						
							<polygon style="fill:#FFFFFF;stroke:#263238;stroke-width:0.5;stroke-linecap:round;stroke-linejoin:round;stroke-miterlimit:10;" points="
							271.959,230.883 270.415,230.883 270.784,231.974 272.328,231.974 						"/>
						
							<polygon style="fill:#FFFFFF;stroke:#263238;stroke-width:0.5;stroke-linecap:round;stroke-linejoin:round;stroke-miterlimit:10;" points="
							272.641,230.883 273.01,231.974 274.554,231.974 274.185,230.883 						"/>
					</g>
					<g>
						
							<polygon style="fill:#FFFFFF;stroke:#263238;stroke-width:0.5;stroke-linecap:round;stroke-linejoin:round;stroke-miterlimit:10;" points="
							277.613,230.406 277.319,229.536 275.775,229.536 276.068,230.406 						"/>
						
							<polygon style="fill:#FFFFFF;stroke:#263238;stroke-width:0.5;stroke-linecap:round;stroke-linejoin:round;stroke-miterlimit:10;" points="
							278.294,230.406 279.839,230.406 279.545,229.536 278,229.536 						"/>
						
							<polygon style="fill:#FFFFFF;stroke:#263238;stroke-width:0.5;stroke-linecap:round;stroke-linejoin:round;stroke-miterlimit:10;" points="
							277.774,230.883 276.23,230.883 276.599,231.974 278.143,231.974 						"/>
						
							<polygon style="fill:#FFFFFF;stroke:#263238;stroke-width:0.5;stroke-linecap:round;stroke-linejoin:round;stroke-miterlimit:10;" points="
							278.456,230.883 278.825,231.974 280.369,231.974 280,230.883 						"/>
					</g>
					<g>
						
							<polygon style="fill:#FFFFFF;stroke:#263238;stroke-width:0.5;stroke-linecap:round;stroke-linejoin:round;stroke-miterlimit:10;" points="
							283.428,230.406 283.134,229.536 281.59,229.536 281.884,230.406 						"/>
						
							<polygon style="fill:#FFFFFF;stroke:#263238;stroke-width:0.5;stroke-linecap:round;stroke-linejoin:round;stroke-miterlimit:10;" points="
							284.11,230.406 285.654,230.406 285.36,229.536 283.816,229.536 						"/>
						
							<polygon style="fill:#FFFFFF;stroke:#263238;stroke-width:0.5;stroke-linecap:round;stroke-linejoin:round;stroke-miterlimit:10;" points="
							283.589,230.883 282.045,230.883 282.414,231.974 283.958,231.974 						"/>
						
							<polygon style="fill:#FFFFFF;stroke:#263238;stroke-width:0.5;stroke-linecap:round;stroke-linejoin:round;stroke-miterlimit:10;" points="
							284.271,230.883 284.64,231.974 286.184,231.974 285.815,230.883 						"/>
					</g>
				</g>
			</g>
			
				<line style="fill:none;stroke:#263238;stroke-width:0.5;stroke-linecap:round;stroke-linejoin:round;stroke-miterlimit:10;" x1="191.495" y1="196.528" x2="164.095" y2="196.528"/>
			
				<line style="fill:none;stroke:#263238;stroke-width:0.5;stroke-linecap:round;stroke-linejoin:round;stroke-miterlimit:10;" x1="159.925" y1="185.806" x2="170.052" y2="216.78"/>
			
				<line style="fill:none;stroke:#263238;stroke-width:0.5;stroke-linecap:round;stroke-linejoin:round;stroke-miterlimit:10;" x1="271.314" y1="190.571" x2="286.206" y2="190.571"/>
			
				<line style="fill:none;stroke:#263238;stroke-width:0.5;stroke-linecap:round;stroke-linejoin:round;stroke-miterlimit:10;" x1="282.036" y1="186.401" x2="299.906" y2="235.841"/>
			<g>
				
					<polygon id="XMLID_26_" style="fill:#FFFFFF;stroke:#263238;stroke-linecap:round;stroke-linejoin:round;stroke-miterlimit:10;" points="
					196.805,186.007 165.312,186.007 163.609,180.174 195.102,180.174 				"/>
				
					<line style="fill:none;stroke:#263238;stroke-linecap:round;stroke-linejoin:round;stroke-miterlimit:10;" x1="170.25" y1="180.618" x2="171.807" y2="185.807"/>
				
					<line style="fill:none;stroke:#263238;stroke-linecap:round;stroke-linejoin:round;stroke-miterlimit:10;" x1="171.288" y1="183.472" x2="195.678" y2="183.472"/>
			</g>
		</g>
		<path style="fill:#92E3A9;stroke:#263238;stroke-linecap:round;stroke-linejoin:round;stroke-miterlimit:10;" d="M150.855,213.206
			l23.271,68.751h67.341L150.855,213.206z M169.676,238.403l44.724,33.934h-33.238L169.676,238.403z"/>
		<g>
			<g>
				<g>
					
						<rect id="XMLID_25_" x="99.431" y="281.173" style="fill:#263238;stroke:#263238;stroke-linecap:round;stroke-linejoin:round;stroke-miterlimit:10;" width="221.967" height="7.512"/>
				</g>
			</g>
			<g>
				<g>
					
						<rect id="XMLID_1_" x="167.775" y="281.173" style="fill:#FFFFFF;stroke:#263238;stroke-linecap:round;stroke-linejoin:round;stroke-miterlimit:10;" width="177.815" height="7.512"/>
				</g>
			</g>
		</g>
	</g>
</g>
<g id="Lamp">
	<g>
		<g>
			<path style="fill:#263238;" d="M159.684,156.335c-1.242,0-2.318-0.924-2.477-2.188l-10.436-82.834
				c-0.172-1.37,0.798-2.62,2.168-2.793c1.373-0.168,2.621,0.798,2.793,2.168l10.436,82.834c0.172,1.37-0.798,2.62-2.168,2.793
				C159.894,156.328,159.788,156.335,159.684,156.335z"/>
		</g>
		<g>
			<path style="fill:#263238;" d="M149.902,75.762c-0.717,0-1.351-0.516-1.477-1.246c-0.14-0.816,0.408-1.592,1.225-1.732
				l64.571-11.088c0.817-0.139,1.592,0.408,1.732,1.225c0.14,0.816-0.408,1.592-1.225,1.732l-64.571,11.088
				C150.072,75.755,149.986,75.762,149.902,75.762z"/>
		</g>
		<g>
			<path style="fill:#263238;" d="M151.206,83.589c-0.717,0-1.351-0.516-1.477-1.246c-0.14-0.816,0.408-1.592,1.225-1.732
				l64.571-11.088c0.813-0.138,1.592,0.408,1.732,1.225c0.14,0.816-0.408,1.592-1.225,1.732l-64.571,11.088
				C151.376,83.582,151.291,83.589,151.206,83.589z"/>
		</g>
		<g>
			<polygon style="fill:#263238;" points="215.127,61.218 206.648,74.914 221.649,76.219 222.954,72.958 			"/>
			<path style="fill:#263238;" d="M221.649,76.719c-0.014,0-0.029-0.001-0.044-0.002l-15.001-1.304
				c-0.173-0.015-0.326-0.119-0.403-0.274c-0.078-0.155-0.07-0.34,0.021-0.487l8.479-13.697c0.09-0.145,0.247-0.234,0.417-0.237
				c0.123-0.012,0.33,0.081,0.424,0.223l7.827,11.74c0.091,0.137,0.109,0.31,0.048,0.463l-1.304,3.261
				C222.037,76.595,221.852,76.719,221.649,76.719z M207.501,74.487l13.822,1.202l1.069-2.672l-7.249-10.873L207.501,74.487z"/>
		</g>
		<g>
			<g>
				<path style="fill:#263238;" d="M250.471,97.101l-8.602-18.925c0-2.217-4.672-4.014-10.436-4.014
					c-5.763,0-10.436,1.797-10.436,4.014l-8.602,18.925c-0.751,0.814-1.181,1.686-1.181,2.599c0,4.295,9.052,7.777,20.219,7.777
					c11.167,0,20.219-3.482,20.219-7.777C251.652,98.786,251.222,97.914,250.471,97.101z"/>
				<path style="fill:#263238;" d="M231.433,107.976c-11.618,0-20.719-3.635-20.719-8.276c0-0.984,0.423-1.952,1.259-2.877
					l8.527-18.761c0.138-2.516,4.792-4.399,10.933-4.399c6.141,0,10.794,1.883,10.933,4.399l8.527,18.761
					c0.835,0.925,1.259,1.893,1.259,2.877C252.152,104.34,243.051,107.976,231.433,107.976z M231.433,74.662
					c-5.855,0-9.936,1.852-9.936,3.514c0,0.071-0.015,0.142-0.045,0.207l-8.602,18.925c-0.022,0.048-0.052,0.093-0.088,0.132
					c-0.696,0.753-1.048,1.513-1.048,2.259c0,3.944,9.03,7.276,19.719,7.276c10.688,0,19.719-3.332,19.719-7.276
					c0-0.746-0.353-1.506-1.048-2.259c-0.036-0.039-0.066-0.084-0.088-0.132l-8.602-18.925c-0.03-0.065-0.045-0.136-0.045-0.207
					C241.368,76.514,237.288,74.662,231.433,74.662z"/>
			</g>
			<g>
				<polygon style="fill:#263238;" points="222.954,59.913 220.997,78.176 241.868,78.176 239.912,59.913 				"/>
				<path style="fill:#263238;" d="M241.868,78.676h-20.872c-0.142,0-0.277-0.06-0.372-0.166c-0.095-0.106-0.14-0.246-0.125-0.387
					l1.956-18.263c0.027-0.254,0.242-0.447,0.497-0.447h16.958c0.255,0,0.47,0.193,0.497,0.447l1.957,18.263
					c0.015,0.141-0.03,0.282-0.125,0.387C242.145,78.616,242.01,78.676,241.868,78.676z M221.553,77.676h19.758l-1.85-17.263h-16.06
					L221.553,77.676z"/>
			</g>
			<g>
				<path style="fill:#636363;" d="M239.912,59.913c0,1.801-3.796,3.261-8.479,3.261c-4.683,0-8.479-1.46-8.479-3.261
					c0-1.801,3.796-3.261,8.479-3.261C236.115,56.652,239.912,58.112,239.912,59.913z"/>
				<path style="fill:#263238;" d="M231.432,63.674c-4.353,0-8.979-1.318-8.979-3.761c0-2.443,4.626-3.761,8.979-3.761
					c4.353,0,8.979,1.318,8.979,3.761C240.411,62.356,235.785,63.674,231.432,63.674z M231.432,57.152
					c-4.702,0-7.979,1.455-7.979,2.761c0,1.306,3.277,2.761,7.979,2.761c4.702,0,7.979-1.455,7.979-2.761
					C239.411,58.607,236.134,57.152,231.432,57.152z"/>
			</g>
		</g>
		<g>
			<path style="fill:#263238;" d="M162.605,145.615l-7.943,14.214l4.084,2.917c1.151,0.822,2.529,1.264,3.943,1.264l0,0
				c2.061,0,4.01-0.937,5.298-2.546l1.308-1.635l-4.181-13.378L162.605,145.615z"/>
			<path style="fill:#263238;" d="M162.688,164.51c-1.527,0-2.991-0.469-4.234-1.357l-4.083-2.917
				c-0.208-0.148-0.27-0.428-0.146-0.651l7.943-14.214c0.117-0.209,0.368-0.307,0.595-0.23l2.508,0.836
				c0.152,0.051,0.271,0.171,0.319,0.325l4.181,13.378c0.05,0.159,0.017,0.332-0.087,0.461l-1.308,1.634
				C166.987,163.514,164.913,164.51,162.688,164.51z M155.316,159.683l3.719,2.657c1.073,0.766,2.335,1.171,3.653,1.171
				c1.919,0,3.708-0.86,4.907-2.359l1.142-1.426l-4.025-12.88l-1.873-0.624L155.316,159.683z"/>
		</g>
		<g>
			<path style="fill:#263238;" d="M164.251,151.421c-0.689,0-1.311-0.479-1.464-1.18l-9.131-41.743
				c-0.177-0.809,0.336-1.608,1.145-1.786c0.81-0.178,1.609,0.335,1.786,1.145l9.131,41.743c0.177,0.809-0.335,1.608-1.145,1.786
				C164.465,151.41,164.358,151.421,164.251,151.421z"/>
		</g>
		<g>
			<path style="fill:#263238;" d="M214.474,64.674c-0.534,0-1.05-0.286-1.321-0.788c-0.113-0.21-2.753-5.19-1.285-9.235
				c0.664-1.828,2.011-3.159,4.005-3.957c2.19-0.876,4.204-0.858,5.987,0.054c3.35,1.713,4.459,6.011,4.504,6.193
				c0.201,0.804-0.288,1.618-1.091,1.819c-0.806,0.202-1.618-0.288-1.819-1.091c-0.007-0.027-0.835-3.171-2.969-4.254
				c-0.989-0.501-2.133-0.481-3.498,0.065c-1.181,0.472-1.932,1.188-2.297,2.188c-0.841,2.304,0.513,5.688,1.105,6.798
				c0.39,0.73,0.116,1.639-0.614,2.03C214.957,64.616,214.714,64.674,214.474,64.674z"/>
		</g>
	</g>
</g>
<g id="Character">
	<g>
		<g>
			<path id="XMLID_22_" style="fill:#263238;stroke:#263238;stroke-linecap:round;stroke-linejoin:round;stroke-miterlimit:10;" d="
				M354.196,307.376c0,0-4.354,6.388-7.916,9.622c-3.563,3.233-14.483,13.349-23.526,28.663
				c-9.043,15.315-15.336,30.976-21.313,44.523c-5.977,13.547-16.767,38.57-22.245,46.181c-5.477,7.611-9.081,11.694-9.081,11.694
				s-8.951,0.206-19.549-0.733c-10.598-0.939-14.976-2.853-15.109-0.092c-0.134,2.761,7.162,10.352,12.42,11.67
				c5.258,1.319,11.972,3.347,13.599,4.916c1.627,1.569,3.669,3.37,6.279,2.22c2.61-1.151,10.598-12.259,19.484-19.918
				c8.885-7.659,19.47-15.236,29.061-33.079c9.591-17.843,10.084-28.037,16.795-34.737c6.71-6.7,13.818-17.213,22.388-22.758
				c8.57-5.546,34.185-15.801,42.365-26.475c8.18-10.673,3.912-23.652-3.953-28.29S360.354,294.476,354.196,307.376z"/>
			<g>
				
					<path id="XMLID_21_" style="fill:#FFFFFF;stroke:#263238;stroke-linecap:round;stroke-linejoin:round;stroke-miterlimit:10;" d="
					M285.527,425.114c-2.42,4.851-4.631,8.89-6.331,11.251c-5.477,7.611-9.081,11.694-9.081,11.694s-8.951,0.205-19.549-0.733
					c-10.598-0.939-14.976-2.853-15.109-0.092c-0.134,2.761,7.162,10.351,12.42,11.67c5.258,1.319,11.972,3.347,13.599,4.915
					c1.627,1.569,3.668,3.371,6.279,2.22c2.61-1.151,10.598-12.259,19.484-19.919c4.134-3.563,8.637-7.123,13.236-11.693
					C293.22,432.68,288.316,428.347,285.527,425.114z"/>
				
					<path id="XMLID_20_" style="fill:#92E3A9;stroke:#263238;stroke-linecap:round;stroke-linejoin:round;stroke-miterlimit:10;" d="
					M267.755,466.039c0.799-0.352,2.106-1.644,3.783-3.477c-7.179-1.432-10.894-5.051-14.183-5.967
					c-4.621-1.288-8.543-3.819-8.543-3.819l3.579-5.299c-0.602-0.047-1.21-0.097-1.825-0.151
					c-10.598-0.939-14.976-2.853-15.109-0.092c-0.134,2.761,7.162,10.351,12.42,11.67c5.258,1.319,11.972,3.347,13.599,4.915
					C263.104,465.388,265.145,467.19,267.755,466.039z"/>
			</g>
		</g>
		<g>
			<path id="XMLID_19_" style="fill:#263238;stroke:#263238;stroke-linecap:round;stroke-linejoin:round;stroke-miterlimit:10;" d="
				M280.204,341.203c0,0,1.914,8.93,6.166,17.435c4.253,8.505,13.608,17.435,20.412,22.538c6.804,5.103,28.704,24.664,39.548,40.185
				c1.361,1.949-3.827,8.505-10.206,14.246c-6.379,5.741-9.143,7.867-5.741,8.93c3.402,1.063,11.482,0.638,19.561-6.166
				c8.08-6.804,13.395-11.269,15.947-16.797c1.276-2.764-5.741-6.166-9.993-9.781c-4.252-3.615-19.986-27.428-24.877-38.484
				c-4.89-11.056-17.222-26.79-26.365-32.319"/>
			<g>
				
					<path id="XMLID_18_" style="fill:#FFFFFF;stroke:#263238;stroke-linecap:round;stroke-linejoin:round;stroke-miterlimit:10;" d="
					M365.891,421.574c1.276-2.764-5.741-6.166-9.993-9.781c-3.576-3.039-15.266-20.357-21.805-32.366l-14.473,12.793
					c8.995,8.323,19.981,19.509,26.71,29.141c1.361,1.949-3.827,8.505-10.206,14.246c-6.379,5.741-9.143,7.867-5.741,8.93
					c3.402,1.063,11.482,0.638,19.561-6.166C358.024,431.568,363.339,427.103,365.891,421.574z"/>
				
					<path id="XMLID_17_" style="fill:#92E3A9;stroke:#263238;stroke-linecap:round;stroke-linejoin:round;stroke-miterlimit:10;" d="
					M361.521,415.933c-1.143,1.708-2.628,4.02-4.348,6.917c-4.04,6.804-15.096,15.521-16.584,14.033
					c-0.833-0.833-1.665-2.263-2.237-3.363c-0.72,0.701-1.465,1.4-2.228,2.087c-6.379,5.741-9.143,7.867-5.741,8.93
					c3.402,1.063,11.482,0.638,19.561-6.166c8.08-6.804,13.395-11.269,15.947-16.797
					C366.665,419.897,364.382,417.985,361.521,415.933z"/>
			</g>
		</g>
		<g>
			
				<rect id="XMLID_16_" x="346.967" y="435.395" style="fill:#FFFFFF;stroke:#263238;stroke-linecap:round;stroke-linejoin:round;stroke-miterlimit:10;" width="72.291" height="3.402"/>
			<path id="XMLID_15_" style="fill:#FFFFFF;stroke:#263238;stroke-linecap:round;stroke-linejoin:round;stroke-miterlimit:10;" d="
				M353.559,344.18l-12.652,120.937c-0.057,0.572,0.393,1.068,0.968,1.068l0,0c0.483,0,0.892-0.354,0.962-0.831l18.801-121.174
				H353.559z"/>
			<path id="XMLID_14_" style="fill:#FFFFFF;stroke:#263238;stroke-linecap:round;stroke-linejoin:round;stroke-miterlimit:10;" d="
				M411.392,344.18l12.652,120.937c0.057,0.572-0.393,1.068-0.968,1.068l0,0c-0.482,0-0.892-0.354-0.962-0.831L403.312,344.18
				H411.392z"/>
			<path id="XMLID_13_" style="fill:#FFFFFF;stroke:#263238;stroke-linecap:round;stroke-linejoin:round;stroke-miterlimit:10;" d="
				M388.429,344.18l0.633,121.028c0.003,0.539-0.433,0.977-0.972,0.977h-0.014c-0.517,0-0.944-0.405-0.971-0.921l-6.755-121.084
				H388.429z"/>
		</g>
		<path id="XMLID_12_" style="fill:#92E3A9;stroke:#263238;stroke-linecap:round;stroke-linejoin:round;stroke-miterlimit:10;" d="
			M416.417,345.456h-68.945c-2.744,0-4.969-2.224-4.969-4.969v-9.624c0-2.744,2.225-4.969,4.969-4.969h68.945
			c2.744,0,4.969,2.225,4.969,4.969v9.624C421.385,343.231,419.161,345.456,416.417,345.456z"/>
		<path id="XMLID_11_" style="fill:#263238;stroke:#263238;stroke-linecap:round;stroke-linejoin:round;stroke-miterlimit:10;" d="
			M281.905,348.858c-1.488-4.89-7.654-14.671,21.9-35.083c15.668-10.821,49.541-19.136,49.541-19.136l3.189-3.615
			c0,0,9.143,9.568,27.003,8.93c17.86-0.638,28.917-8.505,31.043-7.867c2.126,0.638,2.339,6.166,1.488,16.585
			c-0.85,10.418-1.914,15.734-10.206,18.285c-8.292,2.551-26.578,3.402-39.76,3.189c-13.183-0.213-19.561-1.063-19.561-1.063
			s-28.279,17.86-45.926,19.136"/>
		<g id="XMLID_7_">
			<path id="XMLID_10_" style="fill:#FFFFFF;stroke:#263238;stroke-linecap:round;stroke-linejoin:round;stroke-miterlimit:10;" d="
				M347.393,231.703c-1.283,0.403-40.186,8.08-43.587,7.442c-3.402-0.638-12.332-8.292-15.522-8.08
				c-3.189,0.213-9.568,1.276-10.206,2.977c-0.638,1.701,1.488,7.442,1.488,7.442s-2.126,3.189-1.063,4.678
				c1.063,1.488,7.229-2.126,7.229-2.126s7.017,5.103,10.206,4.04c3.189-1.063,6.591-2.339,6.591-2.339s49.966,2.977,50.604,3.189
				c0.638,0.212,6.804,1.488,7.442-7.442C361.213,232.553,354.834,229.364,347.393,231.703z"/>
			
				<line id="XMLID_9_" style="fill:none;stroke:#263238;stroke-linecap:round;stroke-linejoin:round;stroke-miterlimit:10;" x1="279.566" y1="241.484" x2="288.284" y2="234.255"/>
			<polygon id="XMLID_8_" style="fill:#263238;" points="282.756,238.294 287.433,223.623 289.347,224.049 287.008,234.68 			"/>
		</g>
		<g>
			<path id="XMLID_6_" style="fill:#92E3A9;stroke:#263238;stroke-linecap:round;stroke-linejoin:round;stroke-miterlimit:10;" d="
				M360.575,195.132c0,0-9.232,8.276-11.518,15.516c-3.126,9.9-7.618,23.181-3.791,32.749c3.827,9.568,12.12,11.694,12.12,11.694
				s-2.977,28.066-2.126,35.508c0.85,7.442,12.332,16.159,29.554,16.797c17.222,0.638,32.106-5.528,32.106-11.482
				s-12.12-37.634-12.12-44.225c0-6.591,1.063-27.216-4.678-45.714C394.382,187.478,374.183,181.524,360.575,195.132z"/>
			<path style="fill:none;stroke:#263238;stroke-linecap:round;stroke-linejoin:round;stroke-miterlimit:10;" d="M363.189,246.726
				c0,0,15.618,25.229,38.445,32.438"/>
			<path style="fill:none;stroke:#263238;stroke-linecap:round;stroke-linejoin:round;stroke-miterlimit:10;" d="M361.387,250.931
				c0,0,6.007,19.823,21.625,29.434"/>
		</g>
		<g>
			<path id="XMLID_5_" style="fill:#92E3A9;stroke:#263238;stroke-linecap:round;stroke-linejoin:round;stroke-miterlimit:10;" d="
				M359.299,198.321c0,0-4.04,2.339-8.93,7.442c-4.89,5.103-28.491,40.823-28.491,40.823s7.017,14.671,9.143,15.096
				c2.126,0.425,39.122-31.255,42.524-35.083c3.402-3.827,5.528-10.844,4.465-13.82"/>
			<path style="fill:#FFFFFF;stroke:#263238;stroke-linecap:round;stroke-linejoin:round;stroke-miterlimit:10;" d="
				M316.522,248.946c0,0-12.221,3.189-19.214,4.705c-13.035,2.827-32.547,4.313-32.547,4.313s0-3.529-0.784-6.274
				c-0.784-2.745-1.961-2.745-3.529-6.274c-1.569-3.529-4.313-2.353-4.313-0.784c0,1.568,1.176,5.49,1.176,5.49l-15.575-5.77
				c-0.573-0.226-1.227-0.052-1.611,0.429v0c-0.501,0.627-0.376,1.545,0.274,2.015l7.501,4.503l-11.938-3.096
				c-0.663-0.16-1.349,0.159-1.654,0.769l0,0c-0.362,0.724-0.068,1.604,0.655,1.966l10.584,5.068l-9.842-0.613
				c-0.62-0.039-1.169,0.397-1.272,1.01l0,0c-0.107,0.637,0.303,1.246,0.933,1.387l11.357,2.529l-8.713,1.892
				c-0.611,0.133-1.016,0.716-0.926,1.335l0,0c0.083,0.573,0.563,1.004,1.143,1.02c3.712,0.103,20.262,1.537,21.603,1.537
				c1.569,0,11.548,1.155,11.548,1.155s32.143,3.272,53.508-2.502L316.522,248.946z"/>
			<path id="XMLID_4_" style="fill:#FFFFFF;stroke:#263238;stroke-linecap:round;stroke-linejoin:round;stroke-miterlimit:10;" d="
				M313.798,248.713c0,0,6.591,15.734,8.08,17.435c1.488,1.701,9.355,0.638,11.907-1.276c2.551-1.914,2.126-5.741,2.126-5.741
				s-9.781-17.222-10.844-18.073c-1.063-0.85-1.488,1.063-5.953,2.551C314.649,245.098,312.948,245.736,313.798,248.713z"/>
		</g>
		<g>
			<g>
				<g>
					<path style="fill:#FFFFFF;stroke:#263238;stroke-linecap:round;stroke-linejoin:round;stroke-miterlimit:10;" d="
						M350.271,185.478c0,0,2.978,3.07,6.026,7.262c3.048,4.191,4.572,7.239,4.572,7.239l23.624-9.907
						c0,0-12.193-10.288-14.098-17.908c-1.905-7.62-3.048-10.288-3.048-10.288L350.271,185.478z"/>
					
						<path id="XMLID_3_" style="fill:#FFFFFF;stroke:#263238;stroke-linecap:round;stroke-linejoin:round;stroke-miterlimit:10;" d="
						M324.43,154.947c0,0-0.425,6.166,0.638,8.079c1.063,1.914,4.04,3.827,4.04,6.379s-2.126,5.954-1.488,7.867
						c0.638,1.913,4.04,2.126,4.04,2.126s6.379,7.867,8.292,10.631c1.914,2.764,2.764,1.701,5.741,0.85
						c2.977-0.85,9.355-6.379,12.97-10.631c3.615-4.253-2.339-17.223-10.206-25.94c-7.867-8.717-19.561-8.505-22.113-5.953
						C323.792,150.907,324.43,154.947,324.43,154.947z"/>
					<path id="XMLID_2_" style="fill:none;stroke:#263238;stroke-linecap:round;stroke-linejoin:round;stroke-miterlimit:10;" d="
						M328.361,163.612c0,0,0.746-2.712,4.573-0.586"/>
					<path style="fill:none;stroke:#263238;stroke-linecap:round;stroke-linejoin:round;stroke-miterlimit:10;" d="M343.745,173.778
						"/>
					<path style="fill:#263238;" d="M333.182,167.632c0.655,1.193,0.848,2.345,0.43,2.575c-0.417,0.229-1.287-0.552-1.942-1.744
						c-0.655-1.193-0.848-2.345-0.43-2.575C331.658,165.658,332.527,166.439,333.182,167.632z"/>
					<path style="fill:none;stroke:#263238;stroke-linecap:round;stroke-linejoin:round;stroke-miterlimit:10;" d="M326.206,166.826
						l2.809,4.14c1.083,1.597,3.155,2.188,4.919,1.405l0.097-0.043c1.959-0.871,2.879-3.134,2.083-5.124l-1.53-3.826"/>
					
						<line style="fill:none;stroke:#263238;stroke-width:2;stroke-linecap:round;stroke-linejoin:round;stroke-miterlimit:10;" x1="335.753" y1="162.627" x2="325.824" y2="167.039"/>
					
						<line style="fill:none;stroke:#263238;stroke-width:2;stroke-linecap:round;stroke-linejoin:round;stroke-miterlimit:10;" x1="335.753" y1="162.627" x2="349.057" y2="157.453"/>
				</g>
				<path style="fill:#FFFFFF;stroke:#263238;stroke-linecap:round;stroke-linejoin:round;stroke-miterlimit:10;" d="
					M353.248,202.646c0,0,0.334-5.73,3.048-9.907c2.714-4.177,11.431-11.05,20.575-12.574c9.145-1.524,11.812,8.002,11.812,11.05
					S368.489,193.883,353.248,202.646z"/>
			</g>
			<path style="fill:#263238;stroke:#263238;stroke-linecap:round;stroke-linejoin:round;stroke-miterlimit:10;" d="M390.99,163.528
				c0,0-4.674-9.878-7.245-17.076c-2.571-7.198-7.712-15.938-19.537-22.108c-11.825-6.17-27.819-1.59-27.819-1.59l3.599,3.085
				c0,0-3.599-2.056-11.311,1.028c-7.712,3.085-12.339,6.684-14.396,9.769c-2.057,3.085-5.141,10.283-5.141,10.283l9.769-5.141
				c0,0-5.141,5.141-6.17,9.769c-1.028,4.627-1.028,11.825-1.028,11.825s4.627-5.141,11.311-6.684
				c6.684-1.542,10.797-4.627,10.797-4.627l-3.085,6.17c0,0,2.571,0,8.226,0c5.656,0,8.74-1.543,8.74-1.543v4.627
				c0,0,0.514,6.17-1.028,10.283s-6.17,8.226-6.17,8.226s3.085,0.514,5.141,0.514c2.057,0,6.684-2.571,6.684-2.571
				s-1.028,5.656-2.056,7.712c-1.028,2.057-4.579,5.401-4.579,5.401s4.579,1.282,13.319-2.317c1.562-0.643,3.367,3.195,5.051,2.614
				c1.423-0.19,3.283-0.565,5.712-1.259c8.001-2.286,12.432-12.039,12.432-12.039l1.905,4.572c0,0,3.429-4.572,3.429-9.907
				c0-3.051-1.744-6.721-3.238-9.308C388.905,162.215,390.99,163.528,390.99,163.528z"/>
		</g>
		<path style="fill:#263238;stroke:#263238;stroke-linecap:round;stroke-linejoin:round;stroke-miterlimit:10;" d="M347.697,247.866
			c4.117,5.788,9.688,7.225,9.688,7.225s-0.656,6.183-1.264,13.514l5.286-13.75l7.322,11.316l-5.503-16.05l0.499-1.298l8.551,9.707
			l-6.675-14.587l6.613-17.201L347.697,247.866z"/>
	</g>
</g>
<g id="Floor">
	<line style="fill:none;stroke:#263238;stroke-miterlimit:10;" x1="36.88" y1="467.014" x2="476.524" y2="467.014"/>
</g>
<g id="Papers">
	
		<rect x="118.098" y="304.266" transform="matrix(0.9858 0.1676 -0.1676 0.9858 64.7733 -15.7271)" style="fill:#FFFFFF;stroke:#263238;stroke-linecap:round;stroke-linejoin:round;stroke-miterlimit:10;" width="14.885" height="143.058"/>
	
		<rect x="104.867" y="304.266" transform="matrix(0.9669 -0.255 0.255 0.9669 -92.1107 41.0597)" style="fill:#FFFFFF;stroke:#263238;stroke-linecap:round;stroke-linejoin:round;stroke-miterlimit:10;" width="14.885" height="143.058"/>
	
		<rect x="131.328" y="308.4" transform="matrix(0.9815 0.1913 -0.1913 0.9815 75.2312 -19.5282)" style="fill:#FFFFFF;stroke:#263238;stroke-linecap:round;stroke-linejoin:round;stroke-miterlimit:10;" width="14.885" height="143.058"/>
	
		<rect x="93.29" y="371.918" style="fill:#92E3A9;stroke:#263238;stroke-linecap:round;stroke-linejoin:round;stroke-miterlimit:10;" width="57.058" height="95.096"/>
</g>
</svg>
